<svg xmlns="http://www.w3.org/2000/svg" xmlns:xlink="http://www.w3.org/1999/xlink" xmlns:lucid="lucid" width="680" height="674.46"><g transform="translate(-60 -20)" lucid:page-tab-id="wg60UFXosrZE"><path d="M0 0h1870.4v1323.2H0z" fill="#fff"/><path d="M80 47a7 7 0 0 1 7-7h146a7 7 0 0 1 7 7v106a7 7 0 0 1-7 7H87a7 7 0 0 1-7-7z" stroke="#000" stroke-width="2" fill="#c1e4f7"/><use xlink:href="#a" transform="matrix(1,0,0,1,85,45) translate(61.66666666666667 62.9375)"/><path d="M320 47a7 7 0 0 1 7-7h146a7 7 0 0 1 7 7v106a7 7 0 0 1-7 7H327a7 7 0 0 1-7-7z" stroke="#000" stroke-width="2" fill="#c92d39"/><use xlink:href="#b" transform="matrix(1,0,0,1,325,45) translate(69.44444444444444 62.9375)"/><path d="M241.96 100h59.54" stroke="#000" stroke-width="2" fill="none"/><path d="M241.98 101h-1.02v-2h1.02z" stroke="#000" stroke-width=".05"/><path d="M316.76 100l-14.26 4.64v-9.28z" stroke="#000" stroke-width="2"/><path d="M80 207a7 7 0 0 1 7-7h146a7 7 0 0 1 7 7v106a7 7 0 0 1-7 7H87a7 7 0 0 1-7-7z" stroke="#000" stroke-width="2" fill="#c1e4f7"/><use xlink:href="#a" transform="matrix(1,0,0,1,85,205) translate(61.66666666666667 62.9375)"/><path d="M320 207a7 7 0 0 1 7-7h146a7 7 0 0 1 7 7v106a7 7 0 0 1-7 7H327a7 7 0 0 1-7-7z" stroke="#000" stroke-width="2" fill="#c92d39"/><use xlink:href="#b" transform="matrix(1,0,0,1,325,205) translate(69.44444444444444 62.9375)"/><path d="M560 207a7 7 0 0 1 7-7h146a7 7 0 0 1 7 7v106a7 7 0 0 1-7 7H567a7 7 0 0 1-7-7z" stroke="#000" stroke-width="2" fill="#c1e4f7"/><use xlink:href="#c" transform="matrix(1,0,0,1,565,205) translate(60.611111111111114 62.9375)"/><path d="M241.96 260h59.54" stroke="#000" stroke-width="2" fill="none"/><path d="M241.98 261h-1.02v-2h1.02z" stroke="#000" stroke-width=".05"/><path d="M316.76 260l-14.26 4.64v-9.28z" stroke="#000" stroke-width="2"/><path d="M481.96 260h59.54" stroke="#000" stroke-width="2" fill="none"/><path d="M481.98 261h-1.02v-2h1.02z" stroke="#000" stroke-width=".05"/><path d="M556.76 260l-14.26 4.64v-9.28z" stroke="#000" stroke-width="2"/><path d="M80 367a7 7 0 0 1 7-7h146a7 7 0 0 1 7 7v106a7 7 0 0 1-7 7H87a7 7 0 0 1-7-7z" stroke="#000" stroke-width="2" fill="#c1e4f7"/><use xlink:href="#a" transform="matrix(1,0,0,1,85,365) translate(61.66666666666667 62.9375)"/><path d="M320 367a7 7 0 0 1 7-7h146a7 7 0 0 1 7 7v106a7 7 0 0 1-7 7H327a7 7 0 0 1-7-7z" stroke="#000" stroke-width="2" fill="#c92d39"/><use xlink:href="#b" transform="matrix(1,0,0,1,325,365) translate(69.44444444444444 62.9375)"/><path d="M241.94 393.45h58.58" stroke="#000" stroke-width="2" fill="none"/><path d="M241.96 394.45h-1.02v-2h1.02z" stroke="#000" stroke-width=".05"/><path d="M315.8 393.45l-14.28 4.63v-9.27z" stroke="#000" stroke-width="2"/><path d="M80 527a7 7 0 0 1 7-7h146a7 7 0 0 1 7 7v106a7 7 0 0 1-7 7H87a7 7 0 0 1-7-7z" stroke="#000" stroke-width="2" fill="#c1e4f7"/><use xlink:href="#a" transform="matrix(1,0,0,1,85,525) translate(61.66666666666667 62.9375)"/><path d="M320 527a7 7 0 0 1 7-7h146a7 7 0 0 1 7 7v106a7 7 0 0 1-7 7H327a7 7 0 0 1-7-7z" stroke="#000" stroke-width="2" fill="#c92d39"/><use xlink:href="#b" transform="matrix(1,0,0,1,325,525) translate(69.44444444444444 62.9375)"/><path d="M560 527a7 7 0 0 1 7-7h146a7 7 0 0 1 7 7v106a7 7 0 0 1-7 7H567a7 7 0 0 1-7-7z" stroke="#000" stroke-width="2" fill="#c1e4f7"/><use xlink:href="#c" transform="matrix(1,0,0,1,564.9999999999999,525) translate(60.611111111111114 62.9375)"/><path d="M241.96 580h59.54" stroke="#000" stroke-width="2" fill="none"/><path d="M241.98 581h-1.02v-2h1.02z" stroke="#000" stroke-width=".05"/><path d="M316.76 580l-14.26 4.64v-9.28z" stroke="#000" stroke-width="2"/><path d="M481.96 580h59.54" stroke="#000" stroke-width="2" fill="none"/><path d="M481.98 581h-1.02v-2h1.02z" stroke="#000" stroke-width=".05"/><path d="M556.76 580l-14.26 4.64v-9.28z" stroke="#000" stroke-width="2"/><path d="M317.82 456.02h-57.27" stroke="#000" stroke-width="2.5" fill="none"/><path d="M319.07 457.27h-1.28v-2.5h1.27z" stroke="#000" stroke-width=".05"/><path d="M245.03 456.02l14.27-4.63v9.26z" stroke="#000" stroke-width="2.5"/><path d="M640 642.2v38.76H160v-20.44" stroke="#000" stroke-width="2.5" fill="none"/><path d="M641.25 642.24h-2.5v-1.28h2.5z" stroke="#000" stroke-width=".05"/><path d="M160 645l4.64 14.27h-9.28z" stroke="#000" stroke-width="2.5"/><defs><path d="M185-189c-5-48-123-54-124 2 14 75 158 14 163 119 3 78-121 87-175 55-17-10-28-26-33-46l33-7c5 56 141 63 141-1 0-78-155-14-162-118-5-82 145-84 179-34 5 7 8 16 11 25" id="d"/><use transform="matrix(0.1111111111111111,0,0,0.1111111111111111,0,0)" xlink:href="#d" id="a"/><path d="M33 0v-248h34V0H33" id="e"/><use transform="matrix(0.1111111111111111,0,0,0.1111111111111111,0,0)" xlink:href="#e" id="b"/><path d="M233-177c-1 41-23 64-60 70L243 0h-38l-65-103H63V0H30v-248c88 3 205-21 203 71zM63-129c60-2 137 13 137-47 0-61-80-42-137-45v92" id="f"/><use transform="matrix(0.1111111111111111,0,0,0.1111111111111111,0,0)" xlink:href="#f" id="c"/></defs></g></svg>