<svg xmlns="http://www.w3.org/2000/svg" xmlns:xlink="http://www.w3.org/1999/xlink" xmlns:lucid="lucid" width="1120" height="762.5"><g transform="translate(0 0)" lucid:page-tab-id="1fpqMxq.8ZP~"><path d="M0 0h1870.4v1323.2H0z" fill="#fff"/><g fill="none"><path d="M500.88 242.56V661.3h-1.25V242.57z"/><path d="M500.88 251.18v7.4m0 4.92v7.4m0 4.9v7.4m0 4.93v7.4m0 4.9v7.4m0 4.93v7.4m0 4.92v7.4m0 4.9v7.4m0 4.93v7.4m0 4.93v7.4m0 4.9v7.4m0 4.93v7.4m0 4.9v7.4m0 4.93v7.38m0 4.93v7.4m0 4.92v7.4m0 4.92v7.4m0 4.9v7.4m0 4.93v7.4m0 4.92v7.38m0 4.92v7.4m0 4.92v7.4m0 4.92v7.4m0 4.9v7.4m0 4.93v7.4m0 4.9v7.4m0 4.93v7.4m0 4.92v7.4m0 4.9v7.4m0 4.93v7.4m0 4.92v7.38m0 4.93v7.4m0 4.92v7.4m0 4.9v3.7h-1.25v-3.7m0-4.9v-7.4m0-4.93v-7.4m0-4.92v-7.38m0-4.93v-7.4m0-4.92v-7.4m0-4.9v-7.4m0-4.93v-7.4m0-4.93v-7.4m0-4.9v-7.4m0-4.93v-7.4m0-4.9v-7.4m0-4.93v-7.38m0-4.93v-7.4m0-4.92v-7.4m0-4.92v-7.4m0-4.92v-7.4m0-4.9v-7.4m0-4.93v-7.38m0-4.92v-7.4m0-4.92v-7.4m0-4.92v-7.4m0-4.9v-7.4m0-4.93v-7.4m0-4.9v-7.4m0-4.93v-7.4m0-4.92v-7.4m0-4.9v-7.4m0-4.93v-7.4m0-4.92v-7.4m0-4.9v-7.4m0-4.93v-7.4m0-4.9v-7.4m0-4.93v-7.4m0-4.92v-3.7h1.25v3.7" stroke="#000" stroke-width="1.25"/></g><path d="M100 121.93h200v120H100z" stroke="#000" stroke-width="2" fill="#f2f3f5"/><use xlink:href="#a" transform="matrix(1,0,0,1,112.00000000000003,133.93333333333334) translate(13.309876543209896 38.95555555555555)"/><use xlink:href="#b" transform="matrix(1,0,0,1,112.00000000000003,133.93333333333334) translate(18.889814814814827 65.88888888888889)"/><path d="M300 121.93h200v120H300z" stroke="#000" stroke-width="2" fill="#ff8f8f"/><use xlink:href="#c" transform="matrix(1,0,0,1,312,133.93333333333334) translate(36.90771604938273 38.95555555555555)"/><use xlink:href="#b" transform="matrix(1,0,0,1,312,133.93333333333334) translate(18.889814814814827 65.88888888888889)"/><path d="M500 121.93h200v120H500z" stroke="#000" stroke-width="2" fill="#e81313"/><use xlink:href="#c" transform="matrix(1,0,0,1,512,133.93333333333334) translate(36.90771604938273 38.95555555555555)"/><use xlink:href="#d" transform="matrix(1,0,0,1,512,133.93333333333334) translate(25.124382716049396 65.88888888888889)"/><path d="M260 461.93h200v120H260z" stroke="#000" stroke-width="2" fill="#f2f3f5"/><use xlink:href="#a" transform="matrix(1,0,0,1,272,473.9333333333334) translate(13.309876543209896 38.95555555555555)"/><use xlink:href="#b" transform="matrix(1,0,0,1,272,473.9333333333334) translate(18.889814814814827 65.88888888888889)"/><g opacity=".73"><path d="M460 461.93h200v120H460z" stroke="#000" stroke-width="2" fill="#ff8f8f"/><use xlink:href="#c" transform="matrix(1,0,0,1,472.0000000000001,473.9333333333334) translate(36.90771604938273 38.95555555555555)"/><use xlink:href="#b" transform="matrix(1,0,0,1,472.0000000000001,473.9333333333334) translate(18.889814814814827 65.88888888888889)"/></g><path d="M660 461.93h200v120H660z" stroke="#000" stroke-width="2" fill="#e81313"/><use xlink:href="#c" transform="matrix(1,0,0,1,672.0000000000001,473.9333333333334) translate(36.90771604938273 38.95555555555555)"/><use xlink:href="#d" transform="matrix(1,0,0,1,672.0000000000001,473.9333333333334) translate(25.124382716049396 65.88888888888889)"/><g fill="none"><path d="M100.87 240.62v420.7h-1.25V240.6z"/><path d="M100.87 249.3v7.4m0 4.96v7.42m0 4.95v7.43m0 4.95v7.43m0 4.95v7.42m0 4.95v7.42m0 4.95v7.43m0 4.95v7.42m0 4.95v7.42m0 4.94v7.43m0 4.95v7.42m0 4.95v7.4m0 4.96v7.43m0 4.94v7.42m0 4.95v7.43m0 4.95v7.43m0 4.95v7.43m0 4.95v7.42m0 4.95v7.42m0 4.95v7.43m0 4.95v7.42m0 4.95v7.42m0 4.95v7.42m0 4.95v7.42m0 4.94v7.42m0 4.95v7.44m0 4.94v7.43m0 4.96v7.42m0 4.95v7.42m0 4.95v7.43m0 4.95v7.42m0 4.95v7.42m0 4.95v7.43m0 4.95v3.7h-1.25v-3.7m0-4.95v-7.43m0-4.95v-7.42m0-4.95v-7.42m0-4.95v-7.43m0-4.95v-7.42m0-4.95v-7.42m0-4.95V571m0-4.94v-7.43m0-4.94v-7.42m0-4.95v-7.43m0-4.95v-7.43m0-4.96v-7.42m0-4.95v-7.42m0-4.95v-7.43m0-4.95V472m0-4.95v-7.42m0-4.95v-7.43m0-4.94v-7.42m0-4.95v-7.42m0-4.94v-7.42m0-4.95v-7.44m0-4.95v-7.4m0-4.96v-7.42m0-4.95v-7.43m0-4.95v-7.43m0-4.95v-7.42m0-4.95v-7.43m0-4.95v-7.42m0-4.95v-7.42m0-4.95v-7.42m0-4.94v-7.43m0-4.95v-7.42m0-4.95v-7.4m0-4.96v-3.72h1.25v3.72" stroke="#000" stroke-width="1.25"/></g><g fill="none"><path d="M261.88 582.56v78.75h-1.25v-78.74z"/><path d="M261.88 591.75v7.87m0 5.25v7.88m0 5.25v7.87m0 5.25V639m0 5.25v7.87m0 5.25v3.94h-1.25v-3.93m0-5.25v-7.87m0-5.25v-7.88m0-5.25V618m0-5.25v-7.88m0-5.25v-7.87m0-5.25v-3.94h1.25v3.94" stroke="#000" stroke-width="1.25"/></g><g fill="none"><path d="M261.25 661.37v81.13H99v-81.13z"/><path d="M99 661.37c0 5.52 4.48 10 10 10h61.13c5.52 0 10 4.48 10 10 0-5.52 4.47-10 10-10h61.12c5.52 0 10-4.48 10-10" stroke="#000" stroke-width="2.5"/></g><g fill="none"><path d="M660.88 581.6v80.68h-1.25v-80.7z"/><path d="M660.88 591v8.07m0 5.38v8.07m0 5.38v8.07m0 5.38v8.06m0 5.4v8.06m0 5.38v4.04h-1.25v-4.04m0-5.38v-8.07m0-5.4v-8.05m0-5.38v-8.07m0-5.38v-8.07m0-5.38V591m0-5.37v-4.04h1.25v4.03" stroke="#000" stroke-width="1.25"/></g><g fill="none"><path d="M660 661.93v80H500v-80z"/><path d="M500 661.93c0 5.53 4.48 10 10 10h60c5.52 0 10 4.48 10 10 0-5.52 4.48-10 10-10h60c5.52 0 10-4.47 10-10" stroke="#000" stroke-width="2.5"/></g><path d="M60 681.93h240v60H60z" stroke="#000" stroke-opacity="0" stroke-width="2.5" fill="#fff" fill-opacity="0"/><use xlink:href="#e" transform="matrix(1,0,0,1,65.00000000000003,686.9333333333333) translate(35.32222222222225 30.455555555555552)"/><use xlink:href="#f" transform="matrix(1,0,0,1,65.00000000000003,686.9333333333333) translate(152.4074074074074 30.455555555555552)"/><path d="M228 681.93" stroke="#ccc" stroke-opacity=".5" stroke-width="2.5" fill="none"/><path stroke="#ccc" stroke-opacity=".5" stroke-width=".05" fill="#ccc" fill-opacity=".5"/><path stroke="#ccc" stroke-opacity=".5" stroke-width=".05" fill="#ccc" fill-opacity=".5"/><path d="M462.5 681.93h240v60h-240z" stroke="#000" stroke-opacity="0" stroke-width="2.5" fill="#fff" fill-opacity="0"/><use xlink:href="#g" transform="matrix(1,0,0,1,467.5000000000001,686.9333333333333) translate(47.23024691358026 30.455555555555552)"/><use xlink:href="#h" transform="matrix(1,0,0,1,467.5000000000001,686.9333333333333) translate(110.6358024691358 30.455555555555552)"/><path d="M100 63.18v38.2M100 63.22v-1.3" stroke="#000" stroke-width="2.5" fill="none"/><path d="M100 116.9l-4.64-14.28h9.28z" stroke="#000" stroke-width="2.5"/><path d="M20 21.93h160v60H20z" stroke="#000" stroke-opacity="0" stroke-width="2.5" fill="#fff" fill-opacity="0"/><use xlink:href="#i" transform="matrix(1,0,0,1,25,26.93333333333333) translate(37.33055555555558 28.677777777777774)"/><path d="M298.75 63.18v38.2M298.75 63.22v-1.3" stroke="#000" stroke-width="2.5" fill="none"/><path d="M298.75 116.9l-4.63-14.28h9.26z" stroke="#000" stroke-width="2.5"/><path d="M180 20h240v63.87H180z" stroke="#000" stroke-opacity="0" stroke-width="2.5" fill="#fff" fill-opacity="0"/><use xlink:href="#j" transform="matrix(1,0,0,1,185,25) translate(22.904629629629667 29.677777777777774)"/><use xlink:href="#k" transform="matrix(1,0,0,1,185,25) translate(157.66327160493825 29.677777777777774)"/><path d="M500 63.18v38.2M500 63.22v-1.3" stroke="#000" stroke-width="2.5" fill="none"/><path d="M500 116.9l-4.63-14.28h9.26z" stroke="#000" stroke-width="2.5"/><path d="M381.25 20h240v63.87h-240z" stroke="#000" stroke-opacity="0" stroke-width="2.5" fill="#fff" fill-opacity="0"/><use xlink:href="#l" transform="matrix(1,0,0,1,386.2500000000001,25) translate(44.84012345679015 29.677777777777774)"/><use xlink:href="#k" transform="matrix(1,0,0,1,386.2500000000001,25) translate(135.72777777777776 29.677777777777774)"/><g fill="none"><path d="M298.75 261.93v80h-197.5v-80z"/><path d="M101.25 261.93c0 5.53 4.48 10 10 10H190c5.52 0 10 4.48 10 10 0-5.52 4.48-10 10-10h78.75c5.52 0 10-4.47 10-10" stroke="#000" stroke-width="2.5"/></g><path d="M80 270h240v63.87H80z" stroke="#000" stroke-opacity="0" stroke-width="2.5" fill="#fff" fill-opacity="0"/><g><use xlink:href="#m" transform="matrix(1,0,0,1,85.00000000000003,275) translate(49.599382716049405 31.455555555555552)"/><use xlink:href="#n" transform="matrix(1,0,0,1,85.00000000000003,275) translate(118.17962962962963 31.455555555555552)"/></g><path d="M182.5 341.93h240v63.87h-240z" stroke="#000" stroke-opacity="0" stroke-width="2.5" fill="#fff" fill-opacity="0"/><g><use xlink:href="#o" transform="matrix(1,0,0,1,187.5,346.93333333333334) translate(29.056481481481498 31.455555555555552)"/><use xlink:href="#n" transform="matrix(1,0,0,1,187.5,346.93333333333334) translate(138.72253086419752 31.455555555555552)"/></g><g fill="none"><path d="M500 341.93v80H101.25v-80z"/><path d="M101.25 341.93c0 5.53 4.48 10 10 10h179.38c5.52 0 10 4.48 10 10 0-5.52 4.47-10 10-10H490c5.52 0 10-4.47 10-10" stroke="#000" stroke-width="2.5"/></g><path d="M680 151.93h240v60H680z" stroke="#000" stroke-opacity="0" stroke-width="2.5" fill="#fff" fill-opacity="0"/><g><use xlink:href="#p" transform="matrix(1,0,0,1,685,156.93333333333334) translate(38.10524691358026 30.886111111111106)"/><use xlink:href="#q" transform="matrix(1,0,0,1,685,156.93333333333334) translate(111.30277777777778 30.886111111111106)"/></g><path d="M860 491.93h240v60H860z" stroke="#000" stroke-opacity="0" stroke-width="2.5" fill="#fff" fill-opacity="0"/><g><use xlink:href="#r" transform="matrix(1,0,0,1,865,496.9333333333334) translate(20.14197530864199 30.886111111111106)"/><use xlink:href="#s" transform="matrix(1,0,0,1,865,496.9333333333334) translate(123.21604938271605 30.886111111111106)"/></g><defs><path d="M190 0L58-211 59 0H30v-248h39L202-35l-2-213h31V0h-41" id="t"/><path d="M100-194c62-1 85 37 85 99 1 63-27 99-86 99S16-35 15-95c0-66 28-99 85-99zM99-20c44 1 53-31 53-75 0-43-8-75-51-75s-53 32-53 75 10 74 51 75" id="u"/><path d="M117-194c89-4 53 116 60 194h-32v-121c0-31-8-49-39-48C34-167 62-67 57 0H25l-1-190h30c1 10-1 24 2 32 11-22 29-35 61-36" id="v"/><path d="M16-82v-28h88v28H16" id="w"/><path d="M24-231v-30h32v30H24zM24 0v-190h32V0H24" id="x"/><path d="M101-234c-31-9-42 10-38 44h38v23H63V0H32v-167H5v-23h27c-7-52 17-82 69-68v24" id="y"/><path d="M100-194c63 0 86 42 84 106H49c0 40 14 67 53 68 26 1 43-12 49-29l28 8c-11 28-37 45-77 45C44 4 14-33 15-96c1-61 26-98 85-98zm52 81c6-60-76-77-97-28-3 7-6 17-6 28h103" id="z"/><path d="M96-169c-40 0-48 33-48 73s9 75 48 75c24 0 41-14 43-38l32 2c-6 37-31 61-74 61-59 0-76-41-82-99-10-93 101-131 147-64 4 7 5 14 7 22l-32 3c-4-21-16-35-41-35" id="A"/><path d="M59-47c-2 24 18 29 38 22v24C64 9 27 4 27-40v-127H5v-23h24l9-43h21v43h35v23H59v120" id="B"/><path d="M84 4C-5 8 30-112 23-190h32v120c0 31 7 50 39 49 72-2 45-101 50-169h31l1 190h-30c-1-10 1-25-2-33-11 22-28 36-60 37" id="C"/><path d="M135-143c-3-34-86-38-87 0 15 53 115 12 119 90S17 21 10-45l28-5c4 36 97 45 98 0-10-56-113-15-118-90-4-57 82-63 122-42 12 7 21 19 24 35" id="D"/><path d="M68-38c1 34 0 65-14 84H32c9-13 17-26 17-46H33v-38h35" id="E"/><g id="a"><use transform="matrix(0.06234567901234567,0,0,0.06234567901234567,0,0)" xlink:href="#t"/><use transform="matrix(0.06234567901234567,0,0,0.06234567901234567,16.147530864197527,0)" xlink:href="#u"/><use transform="matrix(0.06234567901234567,0,0,0.06234567901234567,28.61666666666666,0)" xlink:href="#v"/><use transform="matrix(0.06234567901234567,0,0,0.06234567901234567,41.08580246913579,0)" xlink:href="#w"/><use transform="matrix(0.06234567901234567,0,0,0.06234567901234567,48.50493827160493,0)" xlink:href="#x"/><use transform="matrix(0.06234567901234567,0,0,0.06234567901234567,53.430246913580234,0)" xlink:href="#v"/><use transform="matrix(0.06234567901234567,0,0,0.06234567901234567,65.89938271604936,0)" xlink:href="#y"/><use transform="matrix(0.06234567901234567,0,0,0.06234567901234567,72.13395061728393,0)" xlink:href="#z"/><use transform="matrix(0.06234567901234567,0,0,0.06234567901234567,84.60308641975305,0)" xlink:href="#A"/><use transform="matrix(0.06234567901234567,0,0,0.06234567901234567,95.82530864197527,0)" xlink:href="#B"/><use transform="matrix(0.06234567901234567,0,0,0.06234567901234567,102.05987654320984,0)" xlink:href="#x"/><use transform="matrix(0.06234567901234567,0,0,0.06234567901234567,106.98518518518514,0)" xlink:href="#u"/><use transform="matrix(0.06234567901234567,0,0,0.06234567901234567,119.45432098765428,0)" xlink:href="#C"/><use transform="matrix(0.06234567901234567,0,0,0.06234567901234567,131.92345679012342,0)" xlink:href="#D"/><use transform="matrix(0.06234567901234567,0,0,0.06234567901234567,143.14567901234565,0)" xlink:href="#E"/></g><path d="M141-36C126-15 110 5 73 4 37 3 15-17 15-53c-1-64 63-63 125-63 3-35-9-54-41-54-24 1-41 7-42 31l-33-3c5-37 33-52 76-52 45 0 72 20 72 64v82c-1 20 7 32 28 27v20c-31 9-61-2-59-35zM48-53c0 20 12 33 32 33 41-3 63-29 60-74-43 2-92-5-92 41" id="F"/><path d="M179-190L93 31C79 59 56 82 12 73V49c39 6 53-20 64-50L1-190h34L92-34l54-156h33" id="G"/><path d="M210-169c-67 3-38 105-44 169h-31v-121c0-29-5-50-35-48C34-165 62-65 56 0H25l-1-190h30c1 10-1 24 2 32 10-44 99-50 107 0 11-21 27-35 58-36 85-2 47 119 55 194h-31v-121c0-29-5-49-35-48" id="H"/><path d="M115-194c55 1 70 41 70 98S169 2 115 4C84 4 66-9 55-30l1 105H24l-1-265h31l2 30c10-21 28-34 59-34zm-8 174c40 0 45-34 45-75s-6-73-45-74c-42 0-51 32-51 76 0 43 10 73 51 73" id="I"/><g id="b"><use transform="matrix(0.06234567901234567,0,0,0.06234567901234567,0,0)" xlink:href="#F"/><use transform="matrix(0.06234567901234567,0,0,0.06234567901234567,12.469135802469133,0)" xlink:href="#D"/><use transform="matrix(0.06234567901234567,0,0,0.06234567901234567,23.691358024691354,0)" xlink:href="#G"/><use transform="matrix(0.06234567901234567,0,0,0.06234567901234567,34.913580246913575,0)" xlink:href="#H"/><use transform="matrix(0.06234567901234567,0,0,0.06234567901234567,53.554938271604925,0)" xlink:href="#I"/><use transform="matrix(0.06234567901234567,0,0,0.06234567901234567,66.02407407407406,0)" xlink:href="#B"/><use transform="matrix(0.06234567901234567,0,0,0.06234567901234567,72.25864197530863,0)" xlink:href="#u"/><use transform="matrix(0.06234567901234567,0,0,0.06234567901234567,84.72777777777776,0)" xlink:href="#H"/><use transform="matrix(0.06234567901234567,0,0,0.06234567901234567,103.36913580246912,0)" xlink:href="#F"/><use transform="matrix(0.06234567901234567,0,0,0.06234567901234567,115.83827160493826,0)" xlink:href="#B"/><use transform="matrix(0.06234567901234567,0,0,0.06234567901234567,122.07283950617283,0)" xlink:href="#x"/><use transform="matrix(0.06234567901234567,0,0,0.06234567901234567,126.99814814814813,0)" xlink:href="#A"/></g><path d="M33 0v-248h34V0H33" id="J"/><g id="c"><use transform="matrix(0.06234567901234567,0,0,0.06234567901234567,0,0)" xlink:href="#J"/><use transform="matrix(0.06234567901234567,0,0,0.06234567901234567,6.234567901234566,0)" xlink:href="#v"/><use transform="matrix(0.06234567901234567,0,0,0.06234567901234567,18.7037037037037,0)" xlink:href="#y"/><use transform="matrix(0.06234567901234567,0,0,0.06234567901234567,24.938271604938265,0)" xlink:href="#z"/><use transform="matrix(0.06234567901234567,0,0,0.06234567901234567,37.4074074074074,0)" xlink:href="#A"/><use transform="matrix(0.06234567901234567,0,0,0.06234567901234567,48.62962962962962,0)" xlink:href="#B"/><use transform="matrix(0.06234567901234567,0,0,0.06234567901234567,54.86419753086419,0)" xlink:href="#x"/><use transform="matrix(0.06234567901234567,0,0,0.06234567901234567,59.789506172839495,0)" xlink:href="#u"/><use transform="matrix(0.06234567901234567,0,0,0.06234567901234567,72.25864197530862,0)" xlink:href="#C"/><use transform="matrix(0.06234567901234567,0,0,0.06234567901234567,84.72777777777776,0)" xlink:href="#D"/><use transform="matrix(0.06234567901234567,0,0,0.06234567901234567,95.94999999999997,0)" xlink:href="#E"/></g><g id="d"><use transform="matrix(0.06234567901234567,0,0,0.06234567901234567,0,0)" xlink:href="#D"/><use transform="matrix(0.06234567901234567,0,0,0.06234567901234567,11.22222222222222,0)" xlink:href="#G"/><use transform="matrix(0.06234567901234567,0,0,0.06234567901234567,22.44444444444444,0)" xlink:href="#H"/><use transform="matrix(0.06234567901234567,0,0,0.06234567901234567,41.08580246913579,0)" xlink:href="#I"/><use transform="matrix(0.06234567901234567,0,0,0.06234567901234567,53.554938271604925,0)" xlink:href="#B"/><use transform="matrix(0.06234567901234567,0,0,0.06234567901234567,59.789506172839495,0)" xlink:href="#u"/><use transform="matrix(0.06234567901234567,0,0,0.06234567901234567,72.25864197530862,0)" xlink:href="#H"/><use transform="matrix(0.06234567901234567,0,0,0.06234567901234567,90.89999999999998,0)" xlink:href="#F"/><use transform="matrix(0.06234567901234567,0,0,0.06234567901234567,103.36913580246912,0)" xlink:href="#B"/><use transform="matrix(0.06234567901234567,0,0,0.06234567901234567,109.60370370370369,0)" xlink:href="#x"/><use transform="matrix(0.06234567901234567,0,0,0.06234567901234567,114.52901234567899,0)" xlink:href="#A"/></g><path d="M143 4C61 4 22-44 18-125c-5-107 100-154 193-111 17 8 29 25 37 43l-32 9c-13-25-37-40-76-40-61 0-88 39-88 99 0 61 29 100 91 101 35 0 62-11 79-27v-45h-74v-28h105v86C228-13 192 4 143 4" id="K"/><path d="M114-163C36-179 61-72 57 0H25l-1-190h30c1 12-1 29 2 39 6-27 23-49 58-41v29" id="L"/><g id="e"><use transform="matrix(0.06234567901234567,0,0,0.06234567901234567,0,0)" xlink:href="#K"/><use transform="matrix(0.06234567901234567,0,0,0.06234567901234567,17.456790123456788,0)" xlink:href="#z"/><use transform="matrix(0.06234567901234567,0,0,0.06234567901234567,29.92592592592592,0)" xlink:href="#v"/><use transform="matrix(0.06234567901234567,0,0,0.06234567901234567,42.39506172839505,0)" xlink:href="#z"/><use transform="matrix(0.06234567901234567,0,0,0.06234567901234567,54.86419753086418,0)" xlink:href="#L"/><use transform="matrix(0.06234567901234567,0,0,0.06234567901234567,62.28333333333332,0)" xlink:href="#F"/><use transform="matrix(0.06234567901234567,0,0,0.06234567901234567,74.75246913580244,0)" xlink:href="#B"/><use transform="matrix(0.06234567901234567,0,0,0.06234567901234567,80.98703703703701,0)" xlink:href="#x"/><use transform="matrix(0.06234567901234567,0,0,0.06234567901234567,85.91234567901232,0)" xlink:href="#u"/><use transform="matrix(0.06234567901234567,0,0,0.06234567901234567,98.38148148148144,0)" xlink:href="#v"/></g><g id="f"><use transform="matrix(0.06234567901234567,0,0,0.06234567901234567,0,0)" xlink:href="#B"/><use transform="matrix(0.06234567901234567,0,0,0.06234567901234567,6.234567901234566,0)" xlink:href="#x"/><use transform="matrix(0.06234567901234567,0,0,0.06234567901234567,11.159876543209874,0)" xlink:href="#H"/><use transform="matrix(0.06234567901234567,0,0,0.06234567901234567,29.801234567901226,0)" xlink:href="#z"/></g><path d="M185-189c-5-48-123-54-124 2 14 75 158 14 163 119 3 78-121 87-175 55-17-10-28-26-33-46l33-7c5 56 141 63 141-1 0-78-155-14-162-118-5-82 145-84 179-34 5 7 8 16 11 25" id="M"/><path d="M24 0v-261h32V0H24" id="N"/><g id="g"><use transform="matrix(0.06234567901234567,0,0,0.06234567901234567,0,0)" xlink:href="#M"/><use transform="matrix(0.06234567901234567,0,0,0.06234567901234567,14.96296296296296,0)" xlink:href="#z"/><use transform="matrix(0.06234567901234567,0,0,0.06234567901234567,27.432098765432094,0)" xlink:href="#L"/><use transform="matrix(0.06234567901234567,0,0,0.06234567901234567,34.85123456790123,0)" xlink:href="#x"/><use transform="matrix(0.06234567901234567,0,0,0.06234567901234567,39.776543209876536,0)" xlink:href="#F"/><use transform="matrix(0.06234567901234567,0,0,0.06234567901234567,52.24567901234567,0)" xlink:href="#N"/></g><path d="M108 0H70L1-190h34L89-25l56-165h34" id="O"/><g id="h"><use transform="matrix(0.06234567901234567,0,0,0.06234567901234567,0,0)" xlink:href="#x"/><use transform="matrix(0.06234567901234567,0,0,0.06234567901234567,4.925308641975308,0)" xlink:href="#v"/><use transform="matrix(0.06234567901234567,0,0,0.06234567901234567,17.39444444444444,0)" xlink:href="#B"/><use transform="matrix(0.06234567901234567,0,0,0.06234567901234567,23.629012345679005,0)" xlink:href="#z"/><use transform="matrix(0.06234567901234567,0,0,0.06234567901234567,36.09814814814814,0)" xlink:href="#L"/><use transform="matrix(0.06234567901234567,0,0,0.06234567901234567,43.517283950617276,0)" xlink:href="#O"/><use transform="matrix(0.06234567901234567,0,0,0.06234567901234567,54.7395061728395,0)" xlink:href="#F"/><use transform="matrix(0.06234567901234567,0,0,0.06234567901234567,67.20864197530864,0)" xlink:href="#N"/></g><g id="i"><use transform="matrix(0.056172839506172814,0,0,0.056172839506172814,0,0)" xlink:href="#J"/><use transform="matrix(0.056172839506172814,0,0,0.056172839506172814,5.617283950617281,0)" xlink:href="#v"/><use transform="matrix(0.056172839506172814,0,0,0.056172839506172814,16.851851851851844,0)" xlink:href="#y"/><use transform="matrix(0.056172839506172814,0,0,0.056172839506172814,22.469135802469125,0)" xlink:href="#z"/><use transform="matrix(0.056172839506172814,0,0,0.056172839506172814,33.70370370370369,0)" xlink:href="#A"/><use transform="matrix(0.056172839506172814,0,0,0.056172839506172814,43.814814814814795,0)" xlink:href="#B"/><use transform="matrix(0.056172839506172814,0,0,0.056172839506172814,49.43209876543207,0)" xlink:href="#x"/><use transform="matrix(0.056172839506172814,0,0,0.056172839506172814,53.86975308641973,0)" xlink:href="#u"/><use transform="matrix(0.056172839506172814,0,0,0.056172839506172814,65.10432098765429,0)" xlink:href="#v"/></g><g id="j"><use transform="matrix(0.056172839506172814,0,0,0.056172839506172814,0,0)" xlink:href="#J"/><use transform="matrix(0.056172839506172814,0,0,0.056172839506172814,5.617283950617281,0)" xlink:href="#v"/><use transform="matrix(0.056172839506172814,0,0,0.056172839506172814,16.851851851851844,0)" xlink:href="#y"/><use transform="matrix(0.056172839506172814,0,0,0.056172839506172814,22.469135802469125,0)" xlink:href="#z"/><use transform="matrix(0.056172839506172814,0,0,0.056172839506172814,33.70370370370369,0)" xlink:href="#A"/><use transform="matrix(0.056172839506172814,0,0,0.056172839506172814,43.814814814814795,0)" xlink:href="#B"/><use transform="matrix(0.056172839506172814,0,0,0.056172839506172814,49.43209876543207,0)" xlink:href="#x"/><use transform="matrix(0.056172839506172814,0,0,0.056172839506172814,53.86975308641973,0)" xlink:href="#u"/><use transform="matrix(0.056172839506172814,0,0,0.056172839506172814,65.10432098765429,0)" xlink:href="#C"/><use transform="matrix(0.056172839506172814,0,0,0.056172839506172814,76.33888888888885,0)" xlink:href="#D"/><use transform="matrix(0.056172839506172814,0,0,0.056172839506172814,86.44999999999996,0)" xlink:href="#v"/><use transform="matrix(0.056172839506172814,0,0,0.056172839506172814,97.68456790123452,0)" xlink:href="#z"/><use transform="matrix(0.056172839506172814,0,0,0.056172839506172814,108.91913580246907,0)" xlink:href="#D"/><use transform="matrix(0.056172839506172814,0,0,0.056172839506172814,119.0302469135802,0)" xlink:href="#D"/></g><g id="k"><use transform="matrix(0.056172839506172814,0,0,0.056172839506172814,0,0)" xlink:href="#u"/><use transform="matrix(0.056172839506172814,0,0,0.056172839506172814,11.234567901234563,0)" xlink:href="#v"/><use transform="matrix(0.056172839506172814,0,0,0.056172839506172814,22.469135802469125,0)" xlink:href="#D"/><use transform="matrix(0.056172839506172814,0,0,0.056172839506172814,32.58024691358023,0)" xlink:href="#z"/><use transform="matrix(0.056172839506172814,0,0,0.056172839506172814,43.814814814814795,0)" xlink:href="#B"/></g><g id="l"><use transform="matrix(0.056172839506172814,0,0,0.056172839506172814,0,0)" xlink:href="#M"/><use transform="matrix(0.056172839506172814,0,0,0.056172839506172814,13.481481481481476,0)" xlink:href="#G"/><use transform="matrix(0.056172839506172814,0,0,0.056172839506172814,23.59259259259258,0)" xlink:href="#H"/><use transform="matrix(0.056172839506172814,0,0,0.056172839506172814,40.388271604938254,0)" xlink:href="#I"/><use transform="matrix(0.056172839506172814,0,0,0.056172839506172814,51.62283950617282,0)" xlink:href="#B"/><use transform="matrix(0.056172839506172814,0,0,0.056172839506172814,57.2401234567901,0)" xlink:href="#u"/><use transform="matrix(0.056172839506172814,0,0,0.056172839506172814,68.47469135802467,0)" xlink:href="#H"/></g><path d="M30 0v-248h33v221h125V0H30" id="P"/><g id="m"><use transform="matrix(0.06234567901234567,0,0,0.06234567901234567,0,0)" xlink:href="#P"/><use transform="matrix(0.06234567901234567,0,0,0.06234567901234567,12.469135802469133,0)" xlink:href="#F"/><use transform="matrix(0.06234567901234567,0,0,0.06234567901234567,24.938271604938265,0)" xlink:href="#B"/><use transform="matrix(0.06234567901234567,0,0,0.06234567901234567,31.17283950617283,0)" xlink:href="#z"/><use transform="matrix(0.06234567901234567,0,0,0.06234567901234567,43.64197530864196,0)" xlink:href="#v"/><use transform="matrix(0.06234567901234567,0,0,0.06234567901234567,56.11111111111109,0)" xlink:href="#B"/></g><path d="M85-194c31 0 48 13 60 33l-1-100h32l1 261h-30c-2-10 0-23-3-31C134-8 116 4 85 4 32 4 16-35 15-94c0-66 23-100 70-100zm9 24c-40 0-46 34-46 75 0 40 6 74 45 74 42 0 51-32 51-76 0-42-9-74-50-73" id="Q"/><g id="n"><use transform="matrix(0.06234567901234567,0,0,0.06234567901234567,0,0)" xlink:href="#I"/><use transform="matrix(0.06234567901234567,0,0,0.06234567901234567,12.469135802469133,0)" xlink:href="#z"/><use transform="matrix(0.06234567901234567,0,0,0.06234567901234567,24.938271604938265,0)" xlink:href="#L"/><use transform="matrix(0.06234567901234567,0,0,0.06234567901234567,32.3574074074074,0)" xlink:href="#x"/><use transform="matrix(0.06234567901234567,0,0,0.06234567901234567,37.28271604938271,0)" xlink:href="#u"/><use transform="matrix(0.06234567901234567,0,0,0.06234567901234567,49.75185185185184,0)" xlink:href="#Q"/></g><path d="M115-194c53 0 69 39 70 98 0 66-23 100-70 100C84 3 66-7 56-30L54 0H23l1-261h32v101c10-23 28-34 59-34zm-8 174c40 0 45-34 45-75 0-40-5-75-45-74-42 0-51 32-51 76 0 43 10 73 51 73" id="R"/><g id="o"><use transform="matrix(0.06234567901234567,0,0,0.06234567901234567,0,0)" xlink:href="#J"/><use transform="matrix(0.06234567901234567,0,0,0.06234567901234567,6.234567901234566,0)" xlink:href="#v"/><use transform="matrix(0.06234567901234567,0,0,0.06234567901234567,18.7037037037037,0)" xlink:href="#A"/><use transform="matrix(0.06234567901234567,0,0,0.06234567901234567,29.925925925925917,0)" xlink:href="#C"/><use transform="matrix(0.06234567901234567,0,0,0.06234567901234567,42.39506172839505,0)" xlink:href="#R"/><use transform="matrix(0.06234567901234567,0,0,0.06234567901234567,54.86419753086418,0)" xlink:href="#F"/><use transform="matrix(0.06234567901234567,0,0,0.06234567901234567,67.33333333333331,0)" xlink:href="#B"/><use transform="matrix(0.06234567901234567,0,0,0.06234567901234567,73.56790123456788,0)" xlink:href="#x"/><use transform="matrix(0.06234567901234567,0,0,0.06234567901234567,78.49320987654319,0)" xlink:href="#u"/><use transform="matrix(0.06234567901234567,0,0,0.06234567901234567,90.96234567901232,0)" xlink:href="#v"/></g><path d="M141 0L90-78 38 0H4l68-98-65-92h35l48 74 47-74h35l-64 92 68 98h-35" id="S"/><g id="p"><use transform="matrix(0.07469135802469135,0,0,0.07469135802469135,0,0)" xlink:href="#J"/><use transform="matrix(0.07469135802469135,0,0,0.07469135802469135,7.469135802469134,0)" xlink:href="#v"/><use transform="matrix(0.07469135802469135,0,0,0.07469135802469135,22.407407407407405,0)" xlink:href="#Q"/><use transform="matrix(0.07469135802469135,0,0,0.07469135802469135,37.34567901234567,0)" xlink:href="#z"/><use transform="matrix(0.07469135802469135,0,0,0.07469135802469135,52.283950617283935,0)" xlink:href="#S"/></g><g id="q"><use transform="matrix(0.07469135802469135,0,0,0.07469135802469135,0,0)" xlink:href="#I"/><use transform="matrix(0.07469135802469135,0,0,0.07469135802469135,14.938271604938269,0)" xlink:href="#F"/><use transform="matrix(0.07469135802469135,0,0,0.07469135802469135,29.876543209876537,0)" xlink:href="#B"/><use transform="matrix(0.07469135802469135,0,0,0.07469135802469135,37.34567901234567,0)" xlink:href="#x"/><use transform="matrix(0.07469135802469135,0,0,0.07469135802469135,43.246296296296286,0)" xlink:href="#z"/><use transform="matrix(0.07469135802469135,0,0,0.07469135802469135,58.18456790123456,0)" xlink:href="#v"/><use transform="matrix(0.07469135802469135,0,0,0.07469135802469135,73.12283950617282,0)" xlink:href="#B"/></g><g id="r"><use transform="matrix(0.07469135802469135,0,0,0.07469135802469135,0,0)" xlink:href="#J"/><use transform="matrix(0.07469135802469135,0,0,0.07469135802469135,7.469135802469134,0)" xlink:href="#v"/><use transform="matrix(0.07469135802469135,0,0,0.07469135802469135,22.407407407407405,0)" xlink:href="#y"/><use transform="matrix(0.07469135802469135,0,0,0.07469135802469135,29.876543209876537,0)" xlink:href="#z"/><use transform="matrix(0.07469135802469135,0,0,0.07469135802469135,44.81481481481481,0)" xlink:href="#A"/><use transform="matrix(0.07469135802469135,0,0,0.07469135802469135,58.25925925925925,0)" xlink:href="#B"/><use transform="matrix(0.07469135802469135,0,0,0.07469135802469135,65.72839506172839,0)" xlink:href="#z"/><use transform="matrix(0.07469135802469135,0,0,0.07469135802469135,80.66666666666666,0)" xlink:href="#Q"/></g><g id="s"><use transform="matrix(0.07469135802469135,0,0,0.07469135802469135,0,0)" xlink:href="#A"/><use transform="matrix(0.07469135802469135,0,0,0.07469135802469135,13.444444444444443,0)" xlink:href="#u"/><use transform="matrix(0.07469135802469135,0,0,0.07469135802469135,28.38271604938271,0)" xlink:href="#v"/><use transform="matrix(0.07469135802469135,0,0,0.07469135802469135,43.32098765432098,0)" xlink:href="#B"/><use transform="matrix(0.07469135802469135,0,0,0.07469135802469135,50.79012345679011,0)" xlink:href="#F"/><use transform="matrix(0.07469135802469135,0,0,0.07469135802469135,65.72839506172838,0)" xlink:href="#A"/><use transform="matrix(0.07469135802469135,0,0,0.07469135802469135,79.17283950617282,0)" xlink:href="#B"/></g></defs></g></svg>