<svg xmlns="http://www.w3.org/2000/svg" xmlns:xlink="http://www.w3.org/1999/xlink" xmlns:lucid="lucid" width="1160" height="160"><g transform="translate(-20 -20)" lucid:page-tab-id="Ef10Z4-5BiyM"><path d="M0 0h1870.4v1323.2H0z" fill="#fff"/><path d="M520 47a7 7 0 0 1 7-7h146a7 7 0 0 1 7 7v106a7 7 0 0 1-7 7H527a7 7 0 0 1-7-7z" stroke="#000" stroke-width="2" fill="#c1e4f7"/><use xlink:href="#a" transform="matrix(1,0,0,1,525,45) translate(39.44444444444444 62.9375)"/><path d="M760 47a7 7 0 0 1 7-7h146a7 7 0 0 1 7 7v106a7 7 0 0 1-7 7H767a7 7 0 0 1-7-7z" stroke="#000" stroke-width="2" fill="#c92d39"/><use xlink:href="#b" transform="matrix(1,0,0,1,765,45) translate(69.44444444444444 62.9375)"/><path d="M1000 47a7 7 0 0 1 7-7h146a7 7 0 0 1 7 7v106a7 7 0 0 1-7 7h-146a7 7 0 0 1-7-7z" stroke="#000" stroke-width="2" fill="#c1e4f7"/><use xlink:href="#c" transform="matrix(1,0,0,1,1005,45) translate(60.611111111111114 62.9375)"/><path d="M681.96 100h59.54" stroke="#000" stroke-width="2" fill="none"/><path d="M681.98 101h-1.02v-2h1.02z" stroke="#000" stroke-width=".05"/><path d="M756.76 100l-14.26 4.64v-9.28z" stroke="#000" stroke-width="2"/><path d="M921.96 100h59.54" stroke="#000" stroke-width="2" fill="none"/><path d="M921.98 101h-1.02v-2h1.02z" stroke="#000" stroke-width=".05"/><path d="M996.76 100l-14.26 4.64v-9.28z" stroke="#000" stroke-width="2"/><path d="M280 47a7 7 0 0 1 7-7h146a7 7 0 0 1 7 7v106a7 7 0 0 1-7 7H287a7 7 0 0 1-7-7z" stroke="#000" stroke-width="2" fill="#c1e4f7"/><use xlink:href="#d" transform="matrix(1,0,0,1,285,45) translate(39.44444444444444 62.9375)"/><path d="M441.96 100h59.54" stroke="#000" stroke-width="2" fill="none"/><path d="M441.98 101h-1.02v-2h1.02z" stroke="#000" stroke-width=".05"/><path d="M516.76 100l-14.26 4.64v-9.28z" stroke="#000" stroke-width="2"/><path d="M40 47a7 7 0 0 1 7-7h146a7 7 0 0 1 7 7v106a7 7 0 0 1-7 7H47a7 7 0 0 1-7-7z" stroke="#000" stroke-width="2" fill="#c1e4f7"/><use xlink:href="#e" transform="matrix(1,0,0,1,45,45) translate(61.66666666666667 62.9375)"/><path d="M201.96 100h59.54" stroke="#000" stroke-width="2" fill="none"/><path d="M201.98 101h-1.02v-2h1.02z" stroke="#000" stroke-width=".05"/><path d="M276.76 100l-14.26 4.64v-9.28z" stroke="#000" stroke-width="2"/><defs><path d="M30 0v-248h187v28H63v79h144v27H63v87h162V0H30" id="f"/><path d="M-5 72V49h209v23H-5" id="g"/><path d="M27 0v-27h64v-190l-56 39v-29l58-41h29v221h61V0H27" id="h"/><g id="a"><use transform="matrix(0.1111111111111111,0,0,0.1111111111111111,0,0)" xlink:href="#f"/><use transform="matrix(0.1111111111111111,0,0,0.1111111111111111,26.666666666666664,0)" xlink:href="#g"/><use transform="matrix(0.1111111111111111,0,0,0.1111111111111111,48.888888888888886,0)" xlink:href="#h"/></g><path d="M33 0v-248h34V0H33" id="i"/><use transform="matrix(0.1111111111111111,0,0,0.1111111111111111,0,0)" xlink:href="#i" id="b"/><path d="M233-177c-1 41-23 64-60 70L243 0h-38l-65-103H63V0H30v-248c88 3 205-21 203 71zM63-129c60-2 137 13 137-47 0-61-80-42-137-45v92" id="j"/><use transform="matrix(0.1111111111111111,0,0,0.1111111111111111,0,0)" xlink:href="#j" id="c"/><path d="M101-251c68 0 85 55 85 127S166 4 100 4C33 4 14-52 14-124c0-73 17-127 87-127zm-1 229c47 0 54-49 54-102s-4-102-53-102c-51 0-55 48-55 102 0 53 5 102 54 102" id="k"/><g id="d"><use transform="matrix(0.1111111111111111,0,0,0.1111111111111111,0,0)" xlink:href="#f"/><use transform="matrix(0.1111111111111111,0,0,0.1111111111111111,26.666666666666664,0)" xlink:href="#g"/><use transform="matrix(0.1111111111111111,0,0,0.1111111111111111,48.888888888888886,0)" xlink:href="#k"/></g><path d="M185-189c-5-48-123-54-124 2 14 75 158 14 163 119 3 78-121 87-175 55-17-10-28-26-33-46l33-7c5 56 141 63 141-1 0-78-155-14-162-118-5-82 145-84 179-34 5 7 8 16 11 25" id="l"/><use transform="matrix(0.1111111111111111,0,0,0.1111111111111111,0,0)" xlink:href="#l" id="e"/></defs></g></svg>