<svg xmlns="http://www.w3.org/2000/svg" xmlns:xlink="http://www.w3.org/1999/xlink" xmlns:lucid="lucid" width="680" height="283"><g transform="translate(-60 -20)" lucid:page-tab-id="UC10dvr93hUe"><path d="M0 0h1870.4v1323.2H0z" fill="#fff"/><path d="M80 47a7 7 0 0 1 7-7h146a7 7 0 0 1 7 7v106a7 7 0 0 1-7 7H87a7 7 0 0 1-7-7z" stroke="#000" stroke-width="2" fill="#f2f3f5"/><use xlink:href="#a" transform="matrix(1,0,0,1,85,45) translate(61.66666666666667 62.9375)"/><path d="M320 47a7 7 0 0 1 7-7h146a7 7 0 0 1 7 7v106a7 7 0 0 1-7 7H327a7 7 0 0 1-7-7z" stroke="#000" stroke-width="2" fill="#f2f3f5"/><use xlink:href="#b" transform="matrix(1,0,0,1,325,45) translate(69.44444444444444 62.9375)"/><path d="M560 47a7 7 0 0 1 7-7h146a7 7 0 0 1 7 7v106a7 7 0 0 1-7 7H567a7 7 0 0 1-7-7z" stroke="#000" stroke-width="2" fill="#f2f3f5"/><use xlink:href="#c" transform="matrix(1,0,0,1,565,45) translate(60.611111111111114 62.9375)"/><path d="M245.96 100h38.6" stroke="#1071e5" stroke-width="10" fill="none"/><path d="M246.1 105h-5.14V95h5.13z" stroke="#1071e5" stroke-width=".05" fill="#1071e5"/><path d="M303.82 100l-14.27 4.64v-9.28z" stroke="#1071e5" stroke-width="10" fill="#1071e5"/><path d="M481.96 100h59.54" stroke="#000" stroke-width="2" fill="none"/><path d="M481.98 101h-1.02v-2h1.02z" stroke="#000" stroke-width=".05"/><path d="M556.76 100l-14.26 4.64v-9.28z" stroke="#000" stroke-width="2"/><path d="M400 165.96v30.6" stroke="#008a0e" stroke-width="10" fill="none"/><path d="M405 166.1h-10v-5.14h10z" stroke="#008a0e" stroke-width=".05" fill="#008a0e"/><path d="M400 215.82l-4.64-14.27h9.28z" stroke="#008a0e" stroke-width="10" fill="#008a0e"/><defs><path d="M185-189c-5-48-123-54-124 2 14 75 158 14 163 119 3 78-121 87-175 55-17-10-28-26-33-46l33-7c5 56 141 63 141-1 0-78-155-14-162-118-5-82 145-84 179-34 5 7 8 16 11 25" id="d"/><use transform="matrix(0.1111111111111111,0,0,0.1111111111111111,0,0)" xlink:href="#d" id="a"/><path d="M33 0v-248h34V0H33" id="e"/><use transform="matrix(0.1111111111111111,0,0,0.1111111111111111,0,0)" xlink:href="#e" id="b"/><path d="M233-177c-1 41-23 64-60 70L243 0h-38l-65-103H63V0H30v-248c88 3 205-21 203 71zM63-129c60-2 137 13 137-47 0-61-80-42-137-45v92" id="f"/><use transform="matrix(0.1111111111111111,0,0,0.1111111111111111,0,0)" xlink:href="#f" id="c"/></defs></g></svg>