<svg xmlns="http://www.w3.org/2000/svg" xmlns:xlink="http://www.w3.org/1999/xlink" xmlns:lucid="lucid" width="920" height="160"><g transform="translate(-20 -20)" lucid:page-tab-id="2u60Lp_0s1sI"><path d="M0 0h1870.4v1323.2H0z" fill="#fff"/><path d="M760 47a7 7 0 0 1 7-7h146a7 7 0 0 1 7 7v106a7 7 0 0 1-7 7H767a7 7 0 0 1-7-7z" stroke="#000" stroke-width="2" fill="#c1e4f7"/><use xlink:href="#a" transform="matrix(1,0,0,1,765,45) translate(50.55555555555556 62.9375)"/><path d="M40 47a7 7 0 0 1 7-7h146a7 7 0 0 1 7 7v106a7 7 0 0 1-7 7H47a7 7 0 0 1-7-7z" stroke="#000" stroke-width="2" fill="#c1e4f7"/><use xlink:href="#b" transform="matrix(1,0,0,1,45,45) translate(61.66666666666667 62.9375)"/><path d="M280 47a7 7 0 0 1 7-7h146a7 7 0 0 1 7 7v106a7 7 0 0 1-7 7H287a7 7 0 0 1-7-7z" stroke="#000" stroke-width="2" fill="#c92d39"/><use xlink:href="#c" transform="matrix(1,0,0,1,285,45) translate(69.44444444444444 62.9375)"/><path d="M520 47a7 7 0 0 1 7-7h146a7 7 0 0 1 7 7v106a7 7 0 0 1-7 7H527a7 7 0 0 1-7-7z" stroke="#000" stroke-width="2" fill="#c1e4f7"/><use xlink:href="#d" transform="matrix(1,0,0,1,525,45) translate(60.611111111111114 62.9375)"/><path d="M201.96 100h59.54" stroke="#000" stroke-width="2" fill="none"/><path d="M201.98 101h-1.02v-2h1.02z" stroke="#000" stroke-width=".05"/><path d="M276.76 100l-14.26 4.64v-9.28z" stroke="#000" stroke-width="2"/><path d="M441.96 100h59.54" stroke="#000" stroke-width="2" fill="none"/><path d="M441.98 101h-1.02v-2h1.02z" stroke="#000" stroke-width=".05"/><path d="M516.76 100l-14.26 4.64v-9.28z" stroke="#000" stroke-width="2"/><path d="M682.2 100h57.28" stroke="#000" stroke-width="2.5" fill="none"/><path d="M682.24 101.25h-1.28v-2.5h1.28z" stroke="#000" stroke-width=".05"/><path d="M755 100l-14.27 4.64v-9.28z" stroke="#000" stroke-width="2.5"/><defs><path d="M185-189c-5-48-123-54-124 2 14 75 158 14 163 119 3 78-121 87-175 55-17-10-28-26-33-46l33-7c5 56 141 63 141-1 0-78-155-14-162-118-5-82 145-84 179-34 5 7 8 16 11 25" id="e"/><path d="M101-251c82-7 93 87 43 132L82-64C71-53 59-42 53-27h129V0H18c2-99 128-94 128-182 0-28-16-43-45-43s-46 15-49 41l-32-3c6-41 34-60 81-64" id="f"/><g id="a"><use transform="matrix(0.1111111111111111,0,0,0.1111111111111111,0,0)" xlink:href="#e"/><use transform="matrix(0.1111111111111111,0,0,0.1111111111111111,26.666666666666664,0)" xlink:href="#f"/></g><use transform="matrix(0.1111111111111111,0,0,0.1111111111111111,0,0)" xlink:href="#e" id="b"/><path d="M33 0v-248h34V0H33" id="g"/><use transform="matrix(0.1111111111111111,0,0,0.1111111111111111,0,0)" xlink:href="#g" id="c"/><path d="M233-177c-1 41-23 64-60 70L243 0h-38l-65-103H63V0H30v-248c88 3 205-21 203 71zM63-129c60-2 137 13 137-47 0-61-80-42-137-45v92" id="h"/><use transform="matrix(0.1111111111111111,0,0,0.1111111111111111,0,0)" xlink:href="#h" id="d"/></defs></g></svg>